<?xml version="1.0" encoding="utf-8"?>
<!-- Generator: Adobe Illustrator 16.0.4, SVG Export Plug-In . SVG Version: 6.00 Build 0)  -->
<!DOCTYPE svg PUBLIC "-//W3C//DTD SVG 1.1 Tiny//EN" "http://www.w3.org/Graphics/SVG/1.1/DTD/svg11-tiny.dtd">
<svg version="1.1" baseProfile="tiny" id="Livello_1"
	 xmlns="http://www.w3.org/2000/svg" xmlns:xlink="http://www.w3.org/1999/xlink" x="0px" y="0px" width="585.034px"
	 height="121.088px" viewBox="0 0 585.034 121.088" xml:space="preserve">
<g>
	<path d="M520.934,102.542V85.17h53.2v-16.89h-53.2V50.065h61.644v-16.89h-80.945v86.256h83.36v-16.89H520.934z M570.152,0
		l-51.51,19.303v9.41l51.51-10.254V0z M431.541,102.542V33.175h-19.302v86.256h75.518v-16.89H431.541z M332.499,102.542V85.17H385.7
		v-16.89h-53.201V50.065h61.646v-16.89h-80.947v86.256h83.36v-16.89H332.499z M381.718,0l-51.511,19.303v9.41l51.511-10.254V0z
		 M245.763,102.542h-21.714V50.065h21.714c20.507,0,30.641,10.494,30.641,26.299C276.404,92.046,266.271,102.542,245.763,102.542
		 M296.31,76.364c0-27.144-18.819-43.188-50.546-43.188h-41.018v86.256h43.43C278.456,118.585,296.31,102.662,296.31,76.364
		 M125.006,102.542V85.17h53.2v-16.89h-53.2V50.065h61.644v-16.89h-80.946v86.256h83.358v-16.89H125.006z M174.226,0l-51.512,19.303
		v9.41l51.512-10.254V0z M20.293,50.065H53.59c11.22,0,15.2,4.583,15.2,12.305c0,7.841-3.98,12.426-15.2,12.426H20.293V50.065z
		 M87.488,110.865c0-4.343,1.688-26.298-15.924-26.298v-0.604c11.34-3.257,17.132-10.132,17.132-21.593
		c0-16.768-12.548-29.194-36.917-29.194H0.992v86.256h19.301V91.684h33.055c14.958,0,14.235,11.22,14.235,14.478
		c0,3.255,0.723,9.408,2.534,13.27h19.904C88.333,117.62,87.488,115.208,87.488,110.865"/>
</g>
</svg>
